<?xml version="1.0" standalone="no"?>
<!DOCTYPE svg PUBLIC "-//W3C//DTD SVG 20010904//EN"
 "http://www.w3.org/TR/2001/REC-SVG-20010904/DTD/svg10.dtd">
<svg version="1.0" xmlns="http://www.w3.org/2000/svg"
 width="546.000000pt" height="697.000000pt" viewBox="0 0 546.000000 697.000000"
 preserveAspectRatio="xMidYMid meet">
<metadata>
Created by potrace 1.16, written by Peter Selinger 2001-2019
</metadata>
<g transform="translate(0.000000,697.000000) scale(0.100000,-0.100000)"
fill="#000000" stroke="none">
<path d="M2460 6423 c-73 -5 -90 -12 -90 -33 0 -15 7 -20 24 -20 14 0 27 -4
30 -8 2 -4 10 -54 16 -111 12 -114 10 -121 -42 -121 -23 0 -32 10 -64 68 -30
54 -101 177 -109 190 -4 5 -137 -26 -145 -34 -5 -5 -18 -72 -29 -149 -16 -111
-25 -143 -40 -156 -12 -10 -18 -24 -15 -36 6 -20 6 -20 82 2 61 18 77 26 77
41 0 12 -8 20 -23 22 -19 3 -23 9 -20 30 3 23 10 28 54 38 50 11 52 11 63 -13
15 -32 14 -33 -9 -33 -15 0 -20 -7 -20 -26 0 -25 2 -26 33 -20 71 15 226 36
309 42 84 7 88 8 88 30 0 19 -5 24 -25 24 -27 0 -40 28 -33 71 3 23 8 24 90
30 96 7 134 23 144 66 10 40 -7 76 -46 95 -34 18 -157 22 -300 11z"/>
<path d="M3105 6274 c-83 -132 -93 -144 -117 -144 -12 0 -18 -7 -18 -24 0 -21
6 -24 69 -35 90 -14 88 -14 94 9 3 13 -1 21 -14 25 -23 8 -25 28 -4 45 16 13
81 6 103 -12 22 -19 14 -48 -13 -48 -24 0 -27 -3 -29 -31 -1 -6 44 -24 99 -40
121 -34 112 -33 118 -9 3 13 -3 24 -17 34 -21 13 -24 28 -35 145 -6 72 -14
138 -17 146 -6 16 -48 31 -110 41 l-41 6 -68 -108z"/>
<path d="M3443 6294 c-4 -11 2 -23 17 -34 l24 -18 -27 -89 c-36 -119 -35 -141
6 -180 69 -68 212 -106 260 -70 9 6 35 51 57 99 22 48 45 90 50 93 5 3 18 1
29 -5 16 -8 22 -6 31 10 10 18 2 24 -79 65 -85 42 -90 44 -96 25 -5 -14 0 -26
16 -39 l23 -18 -39 -87 c-21 -47 -44 -91 -52 -97 -17 -14 -71 -4 -95 18 -24
22 -23 50 6 127 38 101 42 107 70 96 23 -9 36 2 36 30 0 8 -201 90 -221 90 -5
0 -12 -7 -16 -16z"/>
<path d="M1750 6251 c-95 -39 -255 -115 -268 -126 -2 -2 2 -13 8 -25 9 -16 15
-19 23 -11 27 27 44 10 86 -81 46 -104 48 -113 25 -126 -11 -6 -14 -16 -9 -31
4 -12 10 -21 13 -19 55 29 214 101 272 123 41 15 78 30 82 34 3 3 -3 34 -13
68 l-19 62 -31 -11 c-26 -9 -30 -14 -24 -35 10 -43 -4 -64 -68 -94 l-62 -29
-17 37 c-22 51 -22 60 4 69 15 5 26 1 38 -13 12 -15 21 -18 38 -12 l21 8 -19
55 c-27 79 -31 85 -57 75 -15 -5 -20 -14 -16 -27 5 -19 -19 -52 -38 -52 -9 0
-39 59 -39 75 0 10 91 45 118 45 14 0 36 -10 48 -21 17 -16 30 -20 50 -15 23
6 26 11 21 39 -8 50 -25 87 -39 86 -7 0 -65 -22 -128 -48z"/>
<path d="M1369 6060 c-46 -28 -90 -57 -97 -64 -19 -19 -4 -47 22 -40 16 4 25
-2 39 -25 9 -16 17 -32 17 -35 0 -3 -20 -19 -45 -36 l-45 -31 -19 32 c-16 25
-17 35 -8 50 9 15 8 22 -4 34 -13 14 -24 8 -104 -56 -50 -39 -91 -73 -93 -74
-2 -2 2 -13 8 -25 11 -20 13 -20 29 -6 10 9 22 16 27 16 11 0 134 -163 134
-178 0 -5 -7 -15 -15 -22 -11 -9 -12 -17 -4 -31 11 -21 13 -19 152 93 32 26
29 63 -4 53 -13 -5 -25 5 -45 35 -30 45 -31 44 38 85 27 16 28 15 48 -17 12
-20 18 -43 15 -58 -11 -55 7 -54 103 6 81 50 90 59 81 76 -7 13 -16 17 -27 13
-9 -4 -21 -7 -25 -8 -4 -1 -31 42 -60 96 l-52 97 23 18 c21 16 23 52 3 52 -5
0 -46 -23 -92 -50z"/>
<path d="M3878 6056 l-27 -53 25 -12 c21 -9 30 -8 51 9 17 13 34 18 47 14 47
-14 46 -22 -6 -112 -62 -109 -62 -109 -93 -92 -23 12 -28 12 -35 0 -6 -8 -9
-18 -7 -22 1 -4 48 -39 104 -77 98 -67 103 -70 114 -50 9 17 7 23 -10 36 -12
8 -21 19 -21 25 0 19 113 189 123 185 6 -2 20 -15 31 -30 17 -23 18 -32 9 -57
-10 -26 -8 -31 14 -46 22 -13 27 -14 34 -3 4 8 19 30 34 49 l26 35 -28 23
c-88 71 -327 230 -348 231 -6 1 -23 -23 -37 -53z"/>
<path d="M967 5762 c-15 -16 -25 -31 -22 -34 3 -3 -14 -17 -38 -31 -52 -31
-98 -81 -129 -140 -30 -57 -31 -145 -2 -183 53 -71 123 -91 199 -54 55 26 128
98 155 151 22 42 26 109 10 140 -10 18 -12 18 -34 4 -22 -15 -24 -21 -19 -73
5 -57 5 -58 -32 -91 -42 -36 -67 -36 -114 0 -29 23 -81 96 -81 114 0 23 46 80
73 89 19 7 38 6 63 -3 34 -12 38 -12 62 12 l25 26 -42 50 c-24 28 -44 51 -45
51 -1 0 -14 -13 -29 -28z"/>
<path d="M4262 5740 c-48 -29 -72 -75 -72 -138 0 -67 26 -119 96 -192 120
-127 238 -138 312 -30 46 68 15 175 -79 275 -90 95 -187 127 -257 85z m219
-119 c46 -47 40 -83 -24 -148 -58 -57 -85 -65 -125 -37 -39 27 -46 60 -21 110
25 52 84 104 117 104 13 0 37 -13 53 -29z"/>
<path d="M2102 5718 c-8 -8 -12 -60 -12 -170 l0 -158 51 0 c66 0 62 -24 -4
-28 l-47 -3 0 -55 0 -54 51 0 c66 0 62 -24 -4 -28 l-47 -3 0 -55 0 -54 50 0
c28 0 50 -4 50 -10 0 -5 -22 -10 -50 -10 l-50 0 0 -60 0 -60 50 0 c62 0 66
-16 5 -23 -26 -2 -48 -7 -51 -9 -2 -3 -1 -150 2 -327 7 -298 9 -323 25 -332
23 -12 271 -39 362 -39 l67 0 0 -261 c0 -143 -4 -259 -9 -257 -36 14 -516 353
-554 391 -53 54 -116 175 -167 321 -56 162 -124 267 -225 348 -74 60 -150 90
-241 96 -79 5 -146 -17 -247 -78 -94 -57 -119 -82 -112 -112 6 -24 16 -28 163
-62 86 -20 163 -40 171 -44 8 -4 21 -30 29 -56 14 -44 14 -57 -2 -155 -10 -58
-22 -110 -27 -115 -5 -5 -92 13 -210 44 l-203 53 -18 -23 c-10 -12 -18 -27
-18 -34 1 -6 33 -74 73 -151 l72 -140 120 -62 c73 -38 133 -62 153 -63 29 0
32 -3 32 -33 0 -45 25 -77 59 -77 35 0 60 27 68 74 5 33 8 35 32 30 150 -34
354 -89 386 -103 38 -17 517 -374 522 -389 2 -4 -14 -18 -35 -31 -126 -81
-863 -589 -890 -615 -124 -115 -84 -291 82 -360 60 -25 123 -21 181 13 28 16
219 160 425 319 237 183 376 284 378 275 2 -8 -8 -55 -23 -106 -43 -152 -149
-307 -209 -307 -13 0 -34 -9 -47 -19 -22 -18 -24 -27 -27 -137 -3 -81 -8 -125
-18 -138 -18 -27 -18 -71 1 -90 11 -11 15 -39 15 -118 0 -127 8 -143 80 -152
67 -9 87 -30 95 -103 12 -98 -5 -93 330 -93 337 0 322 -5 334 99 4 32 13 66
20 75 7 9 36 19 64 22 89 12 87 5 87 314 0 299 -4 324 -58 336 -15 3 -37 9
-49 14 -34 14 -102 107 -143 195 -37 78 -67 181 -57 191 3 3 166 -119 364
-271 197 -152 381 -290 408 -306 80 -46 147 -40 242 23 115 77 125 228 21 324
-27 26 -764 534 -890 615 -21 13 -37 27 -35 31 5 15 484 372 522 389 32 14
236 69 386 103 24 5 27 3 32 -30 17 -101 127 -98 127 3 0 30 3 33 33 33 19 1
79 25 152 63 l120 62 72 140 c40 77 72 145 73 151 0 7 -8 22 -18 34 l-18 23
-203 -53 c-114 -30 -206 -49 -211 -44 -4 5 -16 57 -26 115 -16 98 -16 111 -2
155 8 26 21 52 29 56 8 4 85 24 171 44 147 34 157 38 163 62 7 30 -18 55 -112
112 -133 81 -235 99 -347 60 -171 -58 -285 -192 -367 -428 -50 -144 -114 -265
-166 -319 -44 -44 -521 -378 -529 -370 -4 4 -6 488 -2 492 2 2 88 11 192 20
104 9 205 22 225 28 l36 12 3 328 2 327 -50 0 c-37 0 -50 4 -50 14 0 11 14 16
48 18 l47 3 3 52 3 52 -52 3 c-71 4 -80 28 -10 28 27 0 52 4 55 9 3 5 3 30 0
55 l-7 46 -48 0 c-37 0 -49 4 -49 15 0 11 12 15 50 15 l50 0 0 55 0 55 -50 0
c-38 0 -50 4 -50 15 0 12 13 15 55 15 l55 0 0 149 c0 82 -3 156 -6 165 -5 13
-23 16 -88 16 -78 0 -84 -1 -111 -30 -28 -29 -32 -30 -115 -30 -82 0 -90 2
-125 30 l-38 30 -166 0 -167 0 -34 -30 c-33 -28 -40 -29 -126 -30 -88 0 -91 1
-119 30 -27 28 -34 30 -100 30 -42 0 -76 -5 -83 -12z m678 -153 l0 -145 -75 0
-75 0 0 138 c0 76 3 142 7 145 3 4 37 7 75 7 l68 0 0 -145z m193 85 c15 0 17
-14 17 -115 l0 -115 -44 0 -44 0 -4 133 c-2 72 -2 136 0 140 2 5 16 -3 31 -17
15 -14 35 -26 44 -26z m-374 -182 l1 -48 -70 0 -70 0 0 111 c0 100 2 110 18
107 14 -3 18 -18 24 -83 9 -99 15 -123 18 -70 1 22 5 49 9 60 7 17 9 16 15
-13 11 -49 24 -30 33 51 l8 72 6 -70 c4 -38 7 -91 8 -117z m395 -615 c3 -42 6
-190 6 -330 l0 -253 -45 0 -45 0 0 114 c0 92 4 122 20 157 28 62 26 134 -5
195 -19 38 -25 64 -25 116 0 71 3 76 56 77 l31 1 7 -77z m61 -145 c9 -309 5
-432 -16 -436 -23 -4 -29 72 -29 389 0 257 1 269 19 269 18 0 19 -13 26 -222z
m175 144 c0 -43 3 -187 7 -320 5 -212 4 -242 -9 -242 -19 0 -28 131 -28 427 0
183 2 213 15 213 12 0 15 -15 15 -78z m48 -239 c-2 -242 -6 -317 -15 -321 -10
-3 -13 65 -13 317 0 280 2 321 15 321 13 0 15 -39 13 -317z m82 8 c0 -300 -1
-309 -20 -314 -20 -5 -20 0 -20 309 0 307 0 314 20 314 20 0 20 -7 20 -309z
m-1210 -12 c0 -244 -3 -310 -12 -307 -10 4 -14 77 -16 311 -2 269 0 307 13
307 13 0 15 -40 15 -311z m100 -10 c0 -252 -3 -320 -12 -317 -10 4 -14 79 -16
321 -2 278 0 317 13 317 13 0 15 -41 15 -321z m70 19 c0 -166 2 -299 5 -297 2
3 11 63 20 134 9 71 18 131 21 134 2 2 4 -69 4 -158 l0 -163 -47 7 c-27 4 -48
8 -49 8 -1 1 -4 145 -8 320 l-6 317 30 0 30 0 0 -302z m280 246 c0 -46 -5 -62
-29 -92 -68 -87 -68 -187 0 -274 28 -35 29 -42 29 -137 l0 -101 -52 0 c-29 0
-60 4 -68 10 -12 7 -15 62 -18 329 l-4 321 71 0 71 0 0 -56z m-1177 -19 c82
-25 145 -66 215 -139 74 -78 114 -150 166 -297 50 -140 104 -245 157 -303 29
-32 149 -121 318 -236 185 -127 271 -191 271 -203 0 -11 -5 -15 -11 -11 -6 3
-126 85 -267 182 -142 96 -269 180 -283 185 -75 29 -152 -57 -117 -130 13 -28
66 -70 413 -327 149 -110 184 -141 171 -148 -9 -5 -21 -6 -28 -2 -6 4 -124 93
-262 198 -138 106 -265 201 -281 213 -65 45 -311 107 -475 119 -52 4 -100 9
-106 13 -7 4 8 91 43 261 l54 255 -28 84 -28 85 -140 36 c-77 20 -146 38 -154
41 -21 7 111 88 189 116 76 26 117 28 183 8z m2770 -6 c75 -25 217 -110 196
-118 -8 -3 -77 -21 -154 -41 l-139 -36 -29 -83 -28 -83 45 -216 c25 -120 49
-236 54 -260 12 -49 16 -47 -118 -57 -156 -12 -402 -74 -465 -118 -16 -12
-160 -121 -320 -242 -159 -122 -296 -225 -302 -229 -9 -5 -13 0 -13 16 1 15
14 32 38 49 92 64 560 414 584 437 68 63 26 172 -67 172 -14 0 -66 -28 -117
-63 -51 -35 -171 -116 -265 -181 -131 -89 -173 -113 -173 -99 0 12 79 72 256
193 158 108 274 194 303 226 53 58 107 163 157 303 51 145 92 219 163 294 70
73 125 111 205 138 68 24 115 23 189 -2z m-1351 -38 c62 -43 83 -85 83 -166 0
-59 -4 -78 -24 -106 -87 -128 -279 -113 -342 26 -45 97 -5 204 96 259 44 24
142 17 187 -13z m-109 -379 l57 -4 0 -79 0 -79 -75 0 -75 0 0 91 c0 83 2 90
18 84 9 -4 43 -10 75 -13z m-1599 -152 c104 -27 190 -50 191 -52 2 -2 -26
-135 -50 -235 -5 -22 -8 -22 -111 30 l-106 52 -64 128 c-35 70 -61 127 -57
127 5 0 93 -23 197 -50z m3312 -77 l-64 -128 -106 -52 c-103 -52 -106 -52
-111 -30 -24 101 -52 233 -50 235 4 4 367 100 383 101 7 1 -16 -54 -52 -126z
m-1826 -616 c0 -638 -1 -666 -20 -722 -11 -32 -20 -71 -20 -86 0 -56 81 -119
155 -119 43 0 69 12 113 53 39 37 42 76 12 162 -19 56 -20 82 -18 719 1 530 3
607 9 391 3 -148 7 -445 8 -659 1 -364 2 -393 22 -460 33 -111 31 -133 -20
-176 l-43 -37 64 -30 c35 -17 81 -45 101 -63 37 -32 62 -34 73 -6 3 8 -10 36
-29 63 -47 66 -92 158 -122 249 -24 74 -25 84 -23 338 l2 261 6 -260 c6 -241
9 -266 32 -337 29 -86 71 -167 130 -245 31 -41 50 -56 82 -64 69 -20 76 -35
76 -165 l0 -114 -45 0 c-41 0 -45 2 -51 28 -26 121 -112 230 -223 284 -61 30
-74 33 -166 33 -93 0 -105 -2 -167 -33 -109 -54 -180 -136 -213 -247 -11 -36
-16 -40 -49 -43 l-36 -3 0 107 c0 116 11 144 54 144 35 1 64 23 111 85 58 77
98 160 127 260 22 79 22 88 26 718 3 625 3 637 22 637 20 0 20 -11 20 -663z
m38 -3 c2 -562 0 -666 -13 -710 -16 -55 -20 -114 -7 -114 4 0 23 48 42 106 34
105 34 108 38 321 4 194 6 217 23 234 11 11 28 19 39 19 21 0 21 2 14 405 l-7
405 21 0 22 0 0 -667 c0 -641 1 -671 20 -732 28 -89 11 -129 -71 -166 -33 -15
-45 -16 -78 -6 -22 6 -53 24 -70 40 -36 33 -40 72 -16 141 13 36 15 143 15
717 0 535 3 674 13 671 9 -4 13 -147 15 -664z m-712 373 l-5 -42 10 38 c15 51
28 47 18 -5 -10 -54 -10 -69 1 -43 5 11 9 32 9 47 1 15 6 30 12 34 8 5 10 -9
6 -47 l-6 -54 13 50 c10 37 15 45 21 33 4 -10 12 -15 17 -12 7 5 9 -13 5 -52
l-6 -59 12 55 c15 67 31 52 18 -16 -10 -50 -6 -77 4 -30 3 14 7 37 10 51 3 14
9 23 14 20 5 -3 5 -23 0 -47 -6 -23 -8 -48 -6 -57 2 -9 7 8 11 37 10 65 29 70
22 5 -4 -40 -4 -42 3 -15 11 42 17 48 35 32 11 -8 14 -25 11 -58 l-5 -47 11
43 c13 54 30 46 18 -9 -6 -23 -8 -47 -6 -53 3 -6 8 10 12 37 4 26 12 47 17 47
5 0 7 -21 4 -47 l-5 -48 10 42 c9 39 12 42 30 30 17 -10 19 -20 15 -62 l-5
-50 10 43 c6 23 14 40 19 37 4 -3 4 -22 -1 -42 -5 -21 -8 -45 -8 -53 1 -26 18
22 18 53 1 32 21 37 22 5 0 -18 2 -20 7 -6 6 14 10 15 25 3 15 -11 17 -22 13
-62 l-5 -48 10 43 c11 46 27 50 24 5 -2 -18 -1 -20 2 -5 9 45 24 21 18 -30
l-5 -53 13 47 c11 43 14 46 30 33 15 -11 17 -22 13 -62 l-6 -48 13 42 c11 38
14 40 30 28 15 -11 17 -22 13 -62 l-5 -48 10 43 c15 61 23 45 14 -27 -5 -46
-12 -63 -29 -74 -21 -14 -36 -4 -311 200 -160 118 -296 222 -303 231 -8 11
-11 29 -7 52 9 44 9 45 35 47 20 2 21 -2 16 -40z m1596 7 c5 -16 6 -38 3 -50
-3 -13 -116 -104 -306 -245 -166 -123 -306 -225 -311 -227 -14 -6 -10 182 5
197 10 10 14 3 24 -31 l13 -43 -6 48 c-4 40 -2 51 13 62 16 13 19 10 30 -33
l13 -47 -5 53 c-6 51 9 75 18 30 3 -15 4 -13 2 5 -3 45 13 41 24 -5 l10 -43
-5 48 c-4 40 -2 51 13 62 15 12 19 11 25 -3 5 -14 7 -12 7 6 1 32 21 27 22 -5
0 -31 17 -79 18 -53 0 8 -3 32 -8 53 -5 20 -5 39 -1 42 5 3 13 -14 19 -37 l10
-43 -5 51 c-5 42 -3 52 12 58 21 8 24 5 35 -36 7 -27 7 -25 3 15 -3 27 -1 47
4 47 5 0 13 -21 17 -47 4 -27 9 -43 12 -37 2 6 0 30 -6 53 -12 55 5 63 18 9
l11 -43 -5 47 c-3 33 0 50 11 58 18 16 24 10 35 -32 7 -27 7 -25 3 15 -7 65
12 60 22 -5 4 -29 9 -46 11 -37 2 9 0 34 -6 57 -5 24 -5 44 0 47 5 3 11 -6 14
-20 3 -14 7 -37 10 -51 10 -47 14 -20 4 30 -13 68 3 83 18 16 l12 -55 -6 59
c-4 39 -2 57 5 52 5 -3 13 2 17 12 6 12 11 4 21 -33 l13 -50 -6 54 c-4 38 -2
52 6 47 6 -4 11 -19 12 -34 0 -15 4 -36 9 -47 11 -26 11 -11 1 43 -10 52 1 56
17 5 l11 -38 -6 43 c-4 40 -3 42 18 39 15 -3 26 -13 31 -33z m-994 -528 c-3
-13 -396 -287 -796 -556 -61 -41 -111 -78 -112 -82 0 -3 13 -9 29 -13 38 -8
105 -66 121 -105 7 -17 10 -48 7 -70 -3 -22 -3 -40 -1 -40 2 0 170 124 374
275 204 151 373 275 375 275 3 0 5 -11 5 -24 0 -24 -13 -34 -720 -569 -124
-95 -156 -110 -233 -109 -50 0 -64 4 -95 29 -62 50 -77 78 -77 142 0 98 11
109 381 363 653 448 727 498 736 498 5 0 8 -6 6 -14z m617 -163 c72 -49 280
-192 464 -318 375 -258 386 -268 386 -366 0 -64 -15 -92 -77 -142 -31 -25 -45
-29 -95 -29 -77 -1 -109 14 -233 109 -563 426 -683 518 -687 529 -22 58 17 34
360 -221 197 -146 359 -265 361 -265 2 0 2 18 -1 40 -3 22 0 53 7 70 16 39 83
97 121 105 16 4 29 10 29 13 -1 4 -54 42 -118 86 -394 265 -689 472 -685 479
9 16 36 1 168 -90z m-628 9 c24 -115 22 -120 -70 -187 -45 -32 -205 -151 -355
-262 -150 -112 -275 -203 -277 -203 -3 0 -5 8 -5 18 0 10 -9 35 -20 57 -11 22
-20 45 -20 53 0 7 -4 11 -9 7 -13 -8 -34 32 -24 48 5 8 9 4 14 -13 7 -24 7
-24 8 5 1 18 9 35 20 42 18 11 21 9 30 -30 l10 -42 -5 48 c-3 30 -1 47 5 47 6
0 11 -12 11 -27 0 -16 5 -35 10 -43 12 -18 12 -6 1 43 -5 20 -5 39 -1 42 5 3
13 -14 19 -37 l10 -43 -5 53 c-3 32 -1 52 6 52 5 0 10 -12 11 -27 0 -16 4 -37
9 -48 11 -26 11 -11 1 43 -11 56 5 65 18 10 l10 -43 -5 48 c-3 26 -1 47 4 47
5 0 13 -21 19 -47 l11 -48 -6 60 c-5 63 4 69 19 13 7 -27 7 -25 3 15 -5 47 11
68 19 25 3 -15 4 -13 2 5 -1 15 2 30 7 33 4 3 8 -1 9 -8 0 -7 5 -2 11 12 10
24 11 23 19 -19 13 -70 18 -72 13 -6 -4 44 -3 56 5 45 6 -8 11 -27 11 -42 0
-15 4 -29 9 -32 4 -3 5 13 0 37 -11 55 -11 67 0 67 5 0 12 -21 16 -47 4 -27 9
-43 12 -37 2 6 0 30 -6 53 -12 55 5 63 18 9 l11 -43 -5 47 c-3 33 0 50 11 58
18 16 24 10 35 -32 7 -28 8 -26 4 15 -3 26 -1 47 4 47 4 0 12 -21 18 -47 l11
-48 -4 60 -4 60 15 -40 15 -40 -5 41 c-7 62 8 63 22 2 l12 -53 -6 60 c-4 41
-2 57 5 50 6 -5 12 -21 15 -35 2 -14 3 -6 1 18 -4 43 11 59 19 20 3 -16 5 -12
6 11 1 40 10 36 22 -11 8 -31 8 -30 4 8 -7 59 8 64 21 7 l12 -48 -5 54 c-4 39
-3 52 6 47 6 -4 11 -19 12 -34 0 -15 5 -36 10 -47 9 -21 7 2 -7 75 -3 18 -1
30 5 30 6 0 11 -10 12 -22 0 -13 4 -32 9 -43 6 -13 7 -1 3 35 -6 58 4 63 18 8
8 -31 8 -31 5 9 -6 59 7 63 21 6 l12 -48 -6 60 c-6 63 3 69 18 13 8 -31 8 -30
4 8 -7 62 8 63 22 2 l12 -53 -6 60 c-7 73 7 65 24 -13z m419 11 c-2 -21 -1
-29 1 -18 3 11 9 25 15 30 7 7 8 -8 5 -45 l-6 -55 12 48 c14 57 27 53 21 -6
-3 -40 -3 -40 5 -9 14 55 24 50 18 -8 -4 -36 -3 -48 3 -35 5 11 9 30 9 43 1
12 6 22 12 22 6 0 8 -12 5 -30 -14 -73 -16 -96 -7 -75 5 11 10 32 10 47 1 15
6 30 12 34 9 5 10 -8 6 -47 l-5 -54 13 50 c9 37 14 45 20 33 4 -10 11 -15 16
-12 5 3 10 -10 10 -28 1 -23 3 -26 6 -10 8 39 23 23 19 -20 -2 -24 -1 -32 1
-18 3 14 9 30 15 35 7 7 9 -9 5 -50 l-6 -60 12 53 c14 61 29 60 22 -2 -4 -38
-4 -39 4 -8 15 56 24 50 19 -13 l-6 -60 11 48 c6 26 14 47 18 47 5 0 7 -21 4
-47 -4 -41 -3 -43 4 -15 11 42 17 48 35 32 11 -8 14 -25 11 -58 l-5 -47 11 43
c13 54 30 46 18 -9 -6 -23 -8 -47 -6 -53 3 -6 8 10 12 37 4 26 12 47 17 47 5
0 7 -20 4 -47 -4 -40 -4 -42 3 -15 14 55 24 51 18 -7 -7 -63 0 -63 12 0 8 42
9 43 19 19 6 -14 11 -19 11 -12 1 7 5 11 9 8 5 -3 8 -18 7 -33 -2 -18 -1 -20
2 -5 8 44 24 22 19 -25 l-6 -48 15 40 15 40 -4 -60 -4 -60 11 48 c6 26 14 47
19 47 5 0 7 -21 4 -47 l-5 -48 10 43 c6 23 14 40 19 37 4 -3 4 -22 -1 -42 -5
-21 -8 -45 -8 -53 1 -26 18 22 18 53 1 15 6 27 11 27 7 0 9 -20 6 -52 l-5 -53
10 43 c6 23 14 40 19 37 4 -3 4 -22 -1 -42 -11 -49 -11 -61 1 -43 5 8 10 27
10 43 0 15 5 27 11 27 6 0 8 -17 5 -47 l-5 -48 10 42 c9 39 12 41 30 30 11 -7
19 -24 20 -42 1 -29 1 -29 8 -5 5 17 9 21 14 13 10 -16 -11 -56 -24 -48 -5 4
-9 0 -9 -7 0 -8 -9 -31 -20 -53 -11 -22 -20 -47 -20 -57 0 -10 -2 -18 -5 -18
-2 0 -127 91 -277 203 -150 111 -303 225 -341 252 l-68 50 3 86 c2 48 6 83 9
77 3 -5 9 0 12 11 9 34 18 24 13 -16z m-119 -847 c136 -71 166 -263 60 -374
-50 -53 -99 -73 -173 -73 -89 0 -156 37 -200 109 -52 86 -52 167 0 256 58 99
207 138 313 82z m185 -80 c32 -72 32 -190 -1 -263 -31 -70 -111 -144 -184
-171 -146 -55 -316 5 -390 136 l-30 54 43 -22 c24 -12 54 -35 67 -50 13 -16
49 -41 80 -56 137 -67 296 -10 362 132 29 61 27 168 -5 229 -11 22 -23 60 -27
84 l-5 43 33 -32 c19 -18 44 -56 57 -84z m-681 -228 c31 -117 108 -210 217
-261 61 -29 75 -32 167 -32 88 0 107 3 158 27 79 37 161 117 197 194 17 34 30
71 30 83 0 19 6 21 50 21 l50 0 0 -89 c0 -109 -4 -121 -41 -121 -45 0 -105
-28 -118 -56 -6 -14 -11 -44 -11 -68 0 -75 8 -73 -297 -79 -199 -4 -275 -2
-286 6 -8 7 -18 36 -21 65 -8 63 -23 98 -45 108 -9 4 -41 12 -71 18 l-55 12
-3 107 -3 107 35 0 c33 0 36 -3 47 -42z"/>
<path d="M1455 4746 c2 -13 -3 -23 -10 -23 -7 0 -11 7 -8 16 2 9 -2 5 -10 -9
-9 -14 -14 -28 -11 -31 2 -3 -8 -11 -21 -17 -14 -7 -25 -18 -25 -26 0 -30 53
-157 60 -146 6 9 9 9 12 0 2 -8 12 -14 21 -16 19 -3 19 -2 10 22 -6 16 -7 16
-13 -1 -6 -18 -7 -18 -12 1 -4 17 -1 21 19 19 13 0 27 -5 31 -10 10 -14 52
-15 52 -1 0 6 5 4 10 -4 5 -8 10 -19 10 -25 0 -5 -5 -3 -10 5 -9 13 -10 13
-10 0 0 -13 -1 -13 -10 0 -5 8 -10 11 -10 5 0 -5 5 -17 10 -25 9 -13 10 -13
10 0 0 13 1 13 10 0 9 -13 10 -13 10 0 0 13 2 13 10 0 5 -8 20 -15 34 -16 21
-1 24 2 16 17 -13 23 -13 26 5 26 8 0 12 -4 9 -9 -3 -4 0 -16 6 -25 9 -14 10
-14 7 -2 -4 12 1 15 21 14 14 0 27 -7 30 -15 3 -13 2 -13 -8 0 -9 12 -11 12
-8 1 2 -8 12 -15 21 -17 14 -2 7 17 -30 88 -68 129 -145 210 -213 223 -13 2
-16 -2 -15 -19z"/>
<path d="M1500 4278 c-6 -24 -22 -82 -35 -130 l-23 -87 91 -21 c51 -12 120
-28 155 -37 35 -8 65 -13 68 -11 6 7 55 241 50 245 -2 2 -61 19 -132 39 -71
19 -137 37 -146 40 -13 4 -19 -5 -28 -38z"/>
<path d="M3928 4749 c-53 -27 -117 -105 -171 -207 -37 -71 -44 -90 -30 -88 9
2 19 9 21 17 3 11 1 11 -8 -1 -10 -13 -11 -13 -8 0 3 8 16 15 30 15 20 1 25
-2 21 -14 -3 -12 -2 -12 7 2 6 9 9 21 6 25 -3 5 1 9 9 9 18 0 18 -3 5 -26 -8
-15 -5 -18 16 -17 14 1 29 8 34 16 8 13 10 13 10 0 0 -13 1 -13 10 0 9 13 10
13 10 0 0 -13 1 -13 10 0 5 8 10 20 10 25 0 6 -5 3 -10 -5 -9 -13 -10 -13 -10
0 0 13 -1 13 -10 0 -5 -8 -10 -10 -10 -5 0 6 5 17 10 25 5 8 10 10 10 4 0 -14
42 -13 52 1 4 5 18 10 31 10 20 2 23 -2 19 -19 -5 -19 -6 -19 -12 -1 -6 17 -7
17 -13 1 -9 -24 -9 -25 9 -22 8 1 19 8 24 15 6 11 8 11 12 0 4 -13 58 122 58
147 0 8 -11 19 -25 26 -13 6 -23 14 -21 17 3 3 -2 17 -11 31 -8 14 -12 18 -10
9 3 -9 -1 -16 -8 -16 -7 0 -12 10 -10 22 2 26 -12 27 -57 4z"/>
<path d="M3776 4279 c-76 -21 -140 -40 -142 -42 -5 -4 44 -238 50 -245 3 -2
33 3 68 11 35 9 104 25 155 37 l91 21 -23 87 c-13 48 -29 106 -35 130 -6 23
-14 42 -18 41 -4 0 -69 -18 -146 -40z"/>
<path d="M2694 4769 c-18 -5 -46 -25 -64 -46 -30 -34 -32 -40 -28 -95 3 -47
10 -64 33 -88 77 -80 204 -47 237 62 10 33 9 46 -8 85 -28 69 -100 103 -170
82z"/>
<path d="M2588 3030 c-8 -154 -46 -264 -139 -402 -22 -32 -39 -62 -39 -68 0
-21 30 -21 59 -1 16 12 60 36 97 53 l67 31 -31 26 c-51 44 -53 57 -26 152 29
101 39 195 27 269 -9 53 -10 51 -15 -60z"/>
<path d="M2320 2526 l-35 -13 -3 -102 c-2 -90 -1 -102 13 -99 9 2 26 28 39 59
12 31 33 71 46 89 l23 32 -24 23 c-22 21 -27 22 -59 11z"/>
<path d="M3086 2501 c-18 -19 -17 -21 12 -73 17 -29 36 -72 43 -96 9 -30 17
-42 28 -40 22 4 29 189 8 206 -28 23 -71 25 -91 3z"/>
<path d="M1532 2730 c-94 -58 -98 -216 -5 -263 74 -37 139 -28 193 28 29 30
34 43 38 92 3 48 0 64 -20 93 -45 67 -140 90 -206 50z m153 -53 c51 -29 64
-63 45 -120 -34 -96 -172 -120 -215 -38 -32 63 -8 127 60 161 50 25 61 25 110
-3z"/>
<path d="M3760 2732 c-137 -68 -86 -286 67 -286 95 1 153 58 153 149 0 119
-114 191 -220 137z m105 -52 c68 -33 92 -98 60 -161 -43 -82 -181 -58 -215 38
-19 57 -6 91 45 120 49 28 58 28 110 3z"/>
<path d="M3009 1914 c-13 -14 -57 -42 -98 -62 -66 -32 -86 -37 -162 -40 -111
-5 -176 13 -266 74 l-68 46 39 -40 c82 -85 226 -135 330 -114 80 16 142 49
205 108 31 29 53 53 50 54 -3 0 -16 -12 -30 -26z"/>
<path d="M806 3526 c-53 -20 -92 -60 -111 -114 -55 -163 47 -300 204 -277 61
9 97 32 117 73 47 100 -43 200 -155 172 -24 -6 -46 -8 -49 -6 -3 3 0 24 7 46
12 40 34 60 69 60 15 0 18 -5 14 -25 -2 -14 1 -32 8 -40 16 -19 74 -19 89 -1
20 24 9 77 -20 98 -34 25 -123 33 -173 14z"/>
<path d="M4118 3530 c-96 -29 -153 -142 -128 -255 22 -97 75 -138 180 -139
111 -1 168 50 157 141 -9 79 -84 126 -165 103 -53 -14 -54 -14 -47 23 9 41 42
77 72 77 20 0 22 -4 17 -25 -8 -34 11 -55 52 -55 60 0 81 45 44 93 -32 41
-115 57 -182 37z"/>
<path d="M1177 3426 c-85 -92 -97 -109 -97 -140 l0 -36 96 0 c93 0 95 -1 92
-22 -2 -17 -11 -24 -30 -26 -24 -3 -28 -8 -28 -33 l0 -29 120 0 120 0 0 29 c0
25 -4 30 -27 33 -20 2 -29 9 -31 26 -3 19 1 22 27 22 26 0 31 4 31 24 0 19 -6
25 -27 28 l-28 3 -3 113 -3 112 -58 0 -58 0 -96 -104z"/>
<path d="M4477 3426 c-85 -92 -97 -109 -97 -140 l0 -36 96 0 c93 0 95 -1 92
-22 -2 -17 -11 -24 -30 -26 -24 -3 -28 -8 -28 -33 l0 -29 120 0 120 0 0 29 c0
25 -4 30 -27 33 -20 2 -29 9 -31 26 -3 19 1 22 27 22 26 0 31 4 31 24 0 19 -6
25 -27 28 l-28 3 -3 113 -3 112 -58 0 -58 0 -96 -104z"/>
<path d="M1452 1269 c-12 -18 -11 -23 7 -36 12 -8 21 -22 21 -31 0 -26 -148
-242 -165 -242 -9 0 -26 7 -40 16 -22 15 -24 14 -41 -11 -9 -14 -15 -27 -13
-29 19 -17 206 -134 251 -157 l57 -29 15 29 c14 27 14 29 -10 40 -13 6 -27 17
-30 25 -6 14 28 90 45 100 5 3 49 -13 97 -36 103 -50 185 -58 223 -24 35 32
46 87 27 128 -20 43 -46 62 -176 133 -55 30 -131 75 -169 100 -37 25 -72 45
-77 45 -5 0 -15 -9 -22 -21z"/>
<path d="M3907 1258 c-15 -11 -27 -26 -27 -33 0 -8 -17 -16 -39 -20 -53 -9
-150 -56 -193 -94 -95 -83 -89 -202 11 -232 32 -10 54 -8 137 11 140 33 189
36 198 14 17 -44 -70 -104 -150 -104 -28 0 -61 8 -84 21 -35 20 -39 20 -69 4
-25 -13 -31 -20 -26 -37 12 -35 55 -128 60 -128 18 0 74 36 78 50 3 12 18 19
50 22 109 13 260 117 293 203 31 84 -20 155 -113 155 -24 0 -84 -13 -135 -29
-127 -40 -168 -43 -168 -13 0 29 50 70 102 83 41 11 52 11 83 -4 35 -17 37
-17 66 4 16 11 29 25 29 30 0 6 -17 34 -38 64 l-38 53 -27 -20z"/>
<path d="M3381 1004 c-106 -36 -311 -84 -355 -84 -14 0 -27 -3 -29 -7 -4 -8
12 -155 18 -161 2 -2 19 0 39 3 33 7 36 10 36 40 0 54 80 103 94 58 16 -52 56
-259 52 -269 -2 -6 -22 -14 -43 -17 -37 -6 -39 -8 -35 -37 2 -17 10 -30 18
-30 38 0 347 80 360 93 11 11 -20 57 -35 53 -73 -22 -67 -27 -101 86 -17 56
-37 122 -45 145 l-14 42 35 7 c37 7 76 -11 94 -45 9 -17 14 -19 43 -9 17 6 34
12 35 14 5 4 -52 154 -58 153 -3 0 -52 -16 -109 -35z"/>
<path d="M2030 937 c-98 -116 -186 -209 -212 -223 -19 -10 -34 -11 -51 -5 -21
8 -26 6 -36 -16 -7 -15 -8 -30 -3 -35 5 -5 51 -24 103 -42 146 -52 135 -51
147 -17 9 27 8 31 -11 37 -44 13 -50 25 -26 51 27 28 37 28 114 4 49 -15 60
-23 67 -46 10 -38 2 -47 -40 -43 -31 3 -36 0 -43 -24 -7 -26 -5 -28 34 -39
147 -40 420 -79 549 -79 l78 0 0 29 c0 25 -4 30 -27 33 -27 3 -28 5 -31 72
l-3 69 46 -6 c26 -2 51 -9 57 -15 5 -5 12 -40 16 -77 9 -92 33 -110 135 -109
108 1 157 33 157 103 0 28 -3 31 -29 31 -25 0 -30 -4 -33 -27 -2 -16 -10 -29
-19 -31 -13 -2 -19 10 -28 59 -12 69 -30 96 -70 102 l-26 3 27 12 c61 25 85
82 58 133 -23 42 -64 51 -273 60 -109 4 -206 11 -216 14 -14 4 -20 -1 -24 -22
-7 -35 -2 -43 29 -43 22 0 24 -4 24 -47 -1 -62 -25 -251 -33 -259 -14 -14 -98
8 -112 29 -14 22 -65 275 -65 325 0 15 -4 33 -8 39 -7 11 -138 52 -167 53 -6
0 -31 -24 -55 -53z"/>
</g>
</svg>
